<?xml version="1.0" encoding="UTF-8" standalone="no"?>
<svg
   version="1.0"
   width="550.70837pt"
   height="665.34863pt"
   viewBox="0 0 550.70837 665.34863"
   preserveAspectRatio="xMidYMid"
   id="svg1"
   sodipodi:docname="LOGO.svg"
   inkscape:version="1.3.2 (091e20e, 2023-11-25, custom)"
   xmlns:inkscape="http://www.inkscape.org/namespaces/inkscape"
   xmlns:sodipodi="http://sodipodi.sourceforge.net/DTD/sodipodi-0.dtd"
   xmlns="http://www.w3.org/2000/svg"
   xmlns:svg="http://www.w3.org/2000/svg">
  <defs
     id="defs1" />
  <sodipodi:namedview
     id="namedview1"
     pagecolor="#ffffff"
     bordercolor="#000000"
     borderopacity="0.25"
     inkscape:showpageshadow="2"
     inkscape:pageopacity="0.0"
     inkscape:pagecheckerboard="0"
     inkscape:deskcolor="#d1d1d1"
     inkscape:document-units="pt"
     showgrid="true"
     inkscape:zoom="0.18237462"
     inkscape:cx="-2623.7203"
     inkscape:cy="-10.966438"
     inkscape:window-width="2880"
     inkscape:window-height="1496"
     inkscape:window-x="-12"
     inkscape:window-y="-12"
     inkscape:window-maximized="1"
     inkscape:current-layer="svg1">
    <inkscape:grid
       id="grid1"
       units="pt"
       originx="-1758.3485"
       originy="-95.174637"
       spacingx="1"
       spacingy="1"
       empcolor="#0099e5"
       empopacity="0.30196078"
       color="#0099e5"
       opacity="0.14901961"
       empspacing="5"
       dotted="false"
       gridanglex="30"
       gridanglez="30"
       visible="true" />
  </sodipodi:namedview>
  <g
     transform="matrix(0.1,0,0,-0.1,-247.55404,762.32551)"
     fill="#ff5500"
     stroke="none"
     id="g1"
     style="opacity:1"
     inkscape:export-filename="g1.svg"
     inkscape:export-xdpi="96"
     inkscape:export-ydpi="96">
    <path
       d="m 5134.607,7516.2551 c -131,-130 -265,-304 -339,-442 -13,-24 -33,-58 -43,-75 -10,-17 -21,-38 -25,-46 -9,-26 -35,-84 -50,-113 -8,-16 -14,-35 -14,-42 0,-7 -6,-26 -14,-42 -13,-25 -22,-53 -62,-193 -65,-232 -79,-533 -38,-812 4,-28 2,-38 -8,-38 -7,0 -155,142 -328,315 -173,173 -321,315 -329,315 -20,0 -198,-185 -270,-279 -54,-71 -101,-139 -127,-186 -200,-358 -273,-690 -239,-1085 13,-146 36,-288 52,-313 3,-6 10,-27 14,-46 4,-20 16,-60 28,-90 11,-30 18,-57 16,-60 -3,-2 -137,127 -298,287 -161,161 -296,292 -300,292 -6,0 -35,-58 -87,-175 -41,-92 -50,-116 -50,-130 0,-8 -6,-29 -14,-47 -35,-84 -92,-325 -117,-493 -18,-124 -23,-449 -9,-562 7,-54 16,-127 20,-163 12,-100 43,-243 74,-345 7,-22 21,-67 31,-100 9,-33 23,-72 31,-87 8,-14 14,-33 14,-41 0,-9 6,-28 14,-44 8,-15 21,-44 29,-63 20,-46 115,-239 130,-265 7,-11 24,-39 40,-63 15,-24 27,-45 27,-47 0,-7 92,-139 164,-235 85,-114 318,-351 436,-444 212,-167 426,-292 660,-386 30,-12 70,-28 88,-36 18,-8 39,-14 47,-14 8,0 29,-6 47,-14 31,-13 82,-29 188,-57 75,-20 181,-39 260,-48 42,-4.99995 102,-13.99995 135,-20.99995 91,-20 516,-17 624,4 46,9 100,15.99995 120,15.99995 37,0 134,19 231,46 134,37 167,47 190,56 14,6 39,14 55,19 76,20 159,56 351,151 111,55 153,79 299,178 149,101 319,248 440,380 33,36 70,76 83,90 13,14 63,77 111,140 76,101 106,145 183,268 18,29 142,278 162,327 7,17 21,47 30,68 9,21 16,44 16,52 0,8 6,29 14,47 13,31 27,76 60,201 56,208 95,495 95,702 1,192 -42,564 -70,616 -5,10 -9,30 -9,45 0,27 -21,102 -46,162 -8,18 -14,41 -14,52 0,11 -6,34 -14,52 -8,18 -22,53 -31,78 -27,73 -126,283 -155,330 -5,8 -36,62 -70,118 -55,94 -189,282 -229,323 -9,9 -34,36 -55,60 -57,64 -355,368 -896,914 -971,982 -1134,1145 -1142,1145 -5,0 -58,-48 -117,-107 z"
       id="path1" />
  </g>
</svg>
